<svg xmlns="http://www.w3.org/2000/svg" width="87" height="23" viewBox="0 0 87 23">
    <path fill="#1D1D1B" d="M7.78 23c5.763 0 9.061-2.325 9.061-7.645V3.886c0-1.624.128-1.91 2.21-2.134V.32H7.62v1.433c2.08.223 2.208.51 2.208 2.134V17.33c0 2.453-.096 4.205-1.889 4.205-1.6 0-1.953-1.848-1.953-3.855 0-1.115.096-1.848.224-2.644h-4.45C.641 15.641 0 16.693 0 18.062 0 21.248 2.657 23 7.78 23zm24.038 0c6.82 0 11.654-4.62 11.654-11.946C43.472 5.097 39.726 0 32.458 0c-6.82 0-11.655 4.62-11.655 11.946C20.803 17.903 24.55 23 31.818 23zm.48-1.657c-3.042 0-4.13-4.46-4.13-10.32 0-4.429.8-9.366 3.81-9.366 3.041 0 4.13 4.46 4.13 10.32 0 4.429-.8 9.366-3.81 9.366zm25.83 1.338c6.083 0 9.253-1.847 9.253-6.084 0-3.504-3.266-5.416-7.556-5.543 3.17-.319 6.02-1.911 6.02-5.129 0-3.727-2.946-5.606-7.941-5.606H45.705v1.433c2.081.223 2.21.51 2.21 2.134v15.228c0 1.624-.129 1.91-2.21 2.134v1.433h12.423zm-2.753-12.455h-.449V1.91h.417c2.369 0 3.938 1.243 3.938 4.046 0 2.835-1.377 4.269-3.906 4.269zM57.2 21.089h-.225c-1.536 0-2.049-.446-2.049-2.167v-6.817h1.025c3.106 0 4.674 1.466 4.674 4.396 0 3.186-1.504 4.588-3.425 4.588zM77.939 23C82.934 23 87 20.77 87 15.641c0-4.683-2.946-6.37-7.172-7.55-3.234-.892-4.578-1.72-4.578-3.695 0-1.752 1.312-2.771 3.137-2.771 2.978 0 4.675 2.07 5.475 5.16h1.57V1.911C83.893.765 81.428 0 78.386 0c-4.834 0-8.452 2.803-8.452 7.486 0 3.918 2.337 6.116 6.787 7.327 3.426.924 4.771 1.816 4.771 3.727 0 1.88-1.44 2.803-3.554 2.803-3.234 0-5.411-2.612-6.211-6.052h-1.89l.385 5.575C71.792 22.044 74.673 23 77.939 23z"/>
</svg>
